<mxfile host="app.diagrams.net" modified="2024-01-22T14:07:41.453Z" agent="Mozilla/5.0 (Windows NT 10.0; Win64; x64) AppleWebKit/537.36 (KHTML, like Gecko) Chrome/120.0.0.0 Safari/537.36" etag="yMVaXoegO066fQFbIN8l" version="22.1.16" type="device">
  <diagram id="C5RBs43oDa-KdzZeNtuy" name="Page-1">
    <mxGraphModel dx="1235" dy="1793" grid="1" gridSize="10" guides="1" tooltips="1" connect="1" arrows="1" fold="1" page="1" pageScale="1" pageWidth="827" pageHeight="1169" math="0" shadow="0">
      <root>
        <mxCell id="WIyWlLk6GJQsqaUBKTNV-0" />
        <mxCell id="WIyWlLk6GJQsqaUBKTNV-1" parent="WIyWlLk6GJQsqaUBKTNV-0" />
        <mxCell id="qIYnpFYA4jkUjQLkoqqI-0" value="NAM pop/real pop offspring genotype data" style="rounded=1;whiteSpace=wrap;html=1;" parent="WIyWlLk6GJQsqaUBKTNV-1" vertex="1">
          <mxGeometry x="389" y="40" width="120" height="60" as="geometry" />
        </mxCell>
        <mxCell id="qIYnpFYA4jkUjQLkoqqI-10" value="NAM pop/real pop parents genotype data" style="rounded=1;whiteSpace=wrap;html=1;" parent="WIyWlLk6GJQsqaUBKTNV-1" vertex="1">
          <mxGeometry x="530" y="40" width="120" height="60" as="geometry" />
        </mxCell>
        <mxCell id="qIYnpFYA4jkUjQLkoqqI-11" value="simulated NAM pop offspring" style="rounded=1;whiteSpace=wrap;html=1;" parent="WIyWlLk6GJQsqaUBKTNV-1" vertex="1">
          <mxGeometry x="765" y="370" width="120" height="60" as="geometry" />
        </mxCell>
        <mxCell id="qIYnpFYA4jkUjQLkoqqI-15" value="sim offspring genotypes of NAM population crosses (genotype_simulation.py + sim_all_pops.py)" style="ellipse;whiteSpace=wrap;html=1;" parent="WIyWlLk6GJQsqaUBKTNV-1" vertex="1">
          <mxGeometry x="710" y="220" width="230" height="120" as="geometry" />
        </mxCell>
        <mxCell id="qIYnpFYA4jkUjQLkoqqI-19" value="create summary statistics and plots&lt;br&gt;&amp;nbsp;of real and simulated genotypes&lt;br&gt;(validation_stats.R + gen_plots.py +&lt;br&gt;stat_functions.R/.py)" style="ellipse;whiteSpace=wrap;html=1;" parent="WIyWlLk6GJQsqaUBKTNV-1" vertex="1">
          <mxGeometry x="710" y="510" width="230" height="120" as="geometry" />
        </mxCell>
        <mxCell id="qIYnpFYA4jkUjQLkoqqI-23" value="calculate recombination parameters&lt;br&gt;&amp;nbsp;based on physical map&lt;br&gt;(recomb_rates.R)" style="ellipse;whiteSpace=wrap;html=1;" parent="WIyWlLk6GJQsqaUBKTNV-1" vertex="1">
          <mxGeometry x="655" y="-170" width="230" height="115" as="geometry" />
        </mxCell>
        <mxCell id="qIYnpFYA4jkUjQLkoqqI-28" value="calculate global marker effects with rrBLUP&lt;br&gt;(rrBLUP_phenos_all.R)" style="ellipse;whiteSpace=wrap;html=1;" parent="WIyWlLk6GJQsqaUBKTNV-1" vertex="1">
          <mxGeometry x="195" y="220" width="230" height="120" as="geometry" />
        </mxCell>
        <mxCell id="qIYnpFYA4jkUjQLkoqqI-30" value="ground truth SNP marker effects" style="rounded=1;whiteSpace=wrap;html=1;" parent="WIyWlLk6GJQsqaUBKTNV-1" vertex="1">
          <mxGeometry x="250" y="370" width="120" height="60" as="geometry" />
        </mxCell>
        <mxCell id="qIYnpFYA4jkUjQLkoqqI-32" value="NAM pop/real pop offspring phenotype data&amp;nbsp;" style="rounded=1;whiteSpace=wrap;html=1;" parent="WIyWlLk6GJQsqaUBKTNV-1" vertex="1">
          <mxGeometry x="250" y="40" width="120" height="60" as="geometry" />
        </mxCell>
        <mxCell id="qIYnpFYA4jkUjQLkoqqI-33" value="genetic map (Marker, Position, cM/Bp)" style="rounded=1;whiteSpace=wrap;html=1;" parent="WIyWlLk6GJQsqaUBKTNV-1" vertex="1">
          <mxGeometry x="670" y="40" width="120" height="60" as="geometry" />
        </mxCell>
        <mxCell id="qIYnpFYA4jkUjQLkoqqI-36" value="trait summary stats prediction &lt;br&gt;(train: new pop, test: real pop,&lt;br&gt;CNN, RF, XGBoost, Baseline)&lt;br&gt;(phenotype_prediction.R + CNN_pheno_predict.py)" style="ellipse;whiteSpace=wrap;html=1;" parent="WIyWlLk6GJQsqaUBKTNV-1" vertex="1">
          <mxGeometry x="475" y="850" width="230" height="120" as="geometry" />
        </mxCell>
        <mxCell id="qIYnpFYA4jkUjQLkoqqI-46" value="calculate additive traits and summary statistics for real and new simulated populations &lt;br&gt;(rrBLUP_phenos_all.R)" style="ellipse;whiteSpace=wrap;html=1;" parent="WIyWlLk6GJQsqaUBKTNV-1" vertex="1">
          <mxGeometry x="475" y="510" width="230" height="120" as="geometry" />
        </mxCell>
        <mxCell id="_WT5GWAZE_KRUgxX8VJX-0" value="25 Maize NAM population phenotypes (Parent cross + ~200 offspring, Bukler et al. 2009 and Cook et al. 2012" style="rounded=1;whiteSpace=wrap;html=1;" vertex="1" parent="WIyWlLk6GJQsqaUBKTNV-1">
          <mxGeometry x="260" y="-330" width="170" height="110" as="geometry" />
        </mxCell>
        <mxCell id="_WT5GWAZE_KRUgxX8VJX-1" value="25 Maize NAM population genotypes + physical map (Parent cross + ~200 offspring, Yu et al. 2008)" style="rounded=1;whiteSpace=wrap;html=1;" vertex="1" parent="WIyWlLk6GJQsqaUBKTNV-1">
          <mxGeometry x="520" y="-330" width="170" height="110" as="geometry" />
        </mxCell>
        <mxCell id="_WT5GWAZE_KRUgxX8VJX-2" value="Clean genotype and phenotype data&lt;br&gt;(NAM_data_processing.R)" style="ellipse;whiteSpace=wrap;html=1;" vertex="1" parent="WIyWlLk6GJQsqaUBKTNV-1">
          <mxGeometry x="334" y="-170" width="230" height="120" as="geometry" />
        </mxCell>
        <mxCell id="_WT5GWAZE_KRUgxX8VJX-10" value="sim offspring genotypes of new &lt;br&gt;parental crosses&lt;br&gt;genotype_simulation.py + sim_sim_pops.py" style="ellipse;whiteSpace=wrap;html=1;" vertex="1" parent="WIyWlLk6GJQsqaUBKTNV-1">
          <mxGeometry x="958.5" y="220" width="230" height="120" as="geometry" />
        </mxCell>
        <mxCell id="_WT5GWAZE_KRUgxX8VJX-23" value="" style="endArrow=classic;html=1;rounded=0;entryX=0.5;entryY=0;entryDx=0;entryDy=0;exitX=0.5;exitY=1;exitDx=0;exitDy=0;" edge="1" parent="WIyWlLk6GJQsqaUBKTNV-1" source="qIYnpFYA4jkUjQLkoqqI-10" target="qIYnpFYA4jkUjQLkoqqI-15">
          <mxGeometry width="50" height="50" relative="1" as="geometry">
            <mxPoint x="510" y="160" as="sourcePoint" />
            <mxPoint x="560" y="110" as="targetPoint" />
          </mxGeometry>
        </mxCell>
        <mxCell id="_WT5GWAZE_KRUgxX8VJX-24" value="" style="endArrow=classic;html=1;rounded=0;entryX=0.5;entryY=0;entryDx=0;entryDy=0;" edge="1" parent="WIyWlLk6GJQsqaUBKTNV-1" target="_WT5GWAZE_KRUgxX8VJX-10">
          <mxGeometry width="50" height="50" relative="1" as="geometry">
            <mxPoint x="590" y="100" as="sourcePoint" />
            <mxPoint x="480" y="270" as="targetPoint" />
          </mxGeometry>
        </mxCell>
        <mxCell id="_WT5GWAZE_KRUgxX8VJX-25" value="" style="endArrow=classic;html=1;rounded=0;entryX=0.5;entryY=0;entryDx=0;entryDy=0;exitX=0.5;exitY=1;exitDx=0;exitDy=0;" edge="1" parent="WIyWlLk6GJQsqaUBKTNV-1" source="qIYnpFYA4jkUjQLkoqqI-33" target="qIYnpFYA4jkUjQLkoqqI-15">
          <mxGeometry width="50" height="50" relative="1" as="geometry">
            <mxPoint x="610" y="120" as="sourcePoint" />
            <mxPoint x="490" y="280" as="targetPoint" />
          </mxGeometry>
        </mxCell>
        <mxCell id="_WT5GWAZE_KRUgxX8VJX-26" value="" style="endArrow=classic;html=1;rounded=0;entryX=0.5;entryY=0;entryDx=0;entryDy=0;" edge="1" parent="WIyWlLk6GJQsqaUBKTNV-1" target="_WT5GWAZE_KRUgxX8VJX-10">
          <mxGeometry width="50" height="50" relative="1" as="geometry">
            <mxPoint x="730" y="100" as="sourcePoint" />
            <mxPoint x="500" y="290" as="targetPoint" />
          </mxGeometry>
        </mxCell>
        <mxCell id="_WT5GWAZE_KRUgxX8VJX-27" value="" style="endArrow=classic;html=1;rounded=0;entryX=0.5;entryY=0;entryDx=0;entryDy=0;exitX=0.5;exitY=1;exitDx=0;exitDy=0;" edge="1" parent="WIyWlLk6GJQsqaUBKTNV-1" source="_WT5GWAZE_KRUgxX8VJX-2" target="qIYnpFYA4jkUjQLkoqqI-10">
          <mxGeometry width="50" height="50" relative="1" as="geometry">
            <mxPoint x="510" y="-40" as="sourcePoint" />
            <mxPoint x="560" y="-90" as="targetPoint" />
          </mxGeometry>
        </mxCell>
        <mxCell id="_WT5GWAZE_KRUgxX8VJX-28" value="" style="endArrow=classic;html=1;rounded=0;entryX=0.5;entryY=0;entryDx=0;entryDy=0;exitX=0.5;exitY=1;exitDx=0;exitDy=0;" edge="1" parent="WIyWlLk6GJQsqaUBKTNV-1" source="qIYnpFYA4jkUjQLkoqqI-23" target="qIYnpFYA4jkUjQLkoqqI-33">
          <mxGeometry width="50" height="50" relative="1" as="geometry">
            <mxPoint x="510" y="-40" as="sourcePoint" />
            <mxPoint x="560" y="-90" as="targetPoint" />
          </mxGeometry>
        </mxCell>
        <mxCell id="_WT5GWAZE_KRUgxX8VJX-29" value="" style="endArrow=classic;html=1;rounded=0;entryX=0.5;entryY=0;entryDx=0;entryDy=0;exitX=0.5;exitY=1;exitDx=0;exitDy=0;" edge="1" parent="WIyWlLk6GJQsqaUBKTNV-1" source="_WT5GWAZE_KRUgxX8VJX-2" target="qIYnpFYA4jkUjQLkoqqI-32">
          <mxGeometry width="50" height="50" relative="1" as="geometry">
            <mxPoint x="510" y="-40" as="sourcePoint" />
            <mxPoint x="560" y="-90" as="targetPoint" />
          </mxGeometry>
        </mxCell>
        <mxCell id="_WT5GWAZE_KRUgxX8VJX-30" value="" style="endArrow=classic;html=1;rounded=0;entryX=0.5;entryY=0;entryDx=0;entryDy=0;exitX=0.5;exitY=1;exitDx=0;exitDy=0;" edge="1" parent="WIyWlLk6GJQsqaUBKTNV-1" source="_WT5GWAZE_KRUgxX8VJX-2" target="qIYnpFYA4jkUjQLkoqqI-0">
          <mxGeometry width="50" height="50" relative="1" as="geometry">
            <mxPoint x="449" y="-30" as="sourcePoint" />
            <mxPoint x="560" y="-90" as="targetPoint" />
          </mxGeometry>
        </mxCell>
        <mxCell id="_WT5GWAZE_KRUgxX8VJX-31" value="" style="endArrow=classic;html=1;rounded=0;entryX=0.5;entryY=0;entryDx=0;entryDy=0;exitX=0.5;exitY=1;exitDx=0;exitDy=0;" edge="1" parent="WIyWlLk6GJQsqaUBKTNV-1" source="_WT5GWAZE_KRUgxX8VJX-1" target="_WT5GWAZE_KRUgxX8VJX-2">
          <mxGeometry width="50" height="50" relative="1" as="geometry">
            <mxPoint x="510" y="-40" as="sourcePoint" />
            <mxPoint x="560" y="-90" as="targetPoint" />
          </mxGeometry>
        </mxCell>
        <mxCell id="_WT5GWAZE_KRUgxX8VJX-32" value="" style="endArrow=classic;html=1;rounded=0;entryX=0.5;entryY=0;entryDx=0;entryDy=0;exitX=0.5;exitY=1;exitDx=0;exitDy=0;" edge="1" parent="WIyWlLk6GJQsqaUBKTNV-1" source="_WT5GWAZE_KRUgxX8VJX-1" target="qIYnpFYA4jkUjQLkoqqI-23">
          <mxGeometry width="50" height="50" relative="1" as="geometry">
            <mxPoint x="510" y="-40" as="sourcePoint" />
            <mxPoint x="560" y="-90" as="targetPoint" />
          </mxGeometry>
        </mxCell>
        <mxCell id="_WT5GWAZE_KRUgxX8VJX-33" value="" style="endArrow=classic;html=1;rounded=0;entryX=0.5;entryY=0;entryDx=0;entryDy=0;exitX=0.464;exitY=1.016;exitDx=0;exitDy=0;exitPerimeter=0;" edge="1" parent="WIyWlLk6GJQsqaUBKTNV-1" source="_WT5GWAZE_KRUgxX8VJX-0" target="_WT5GWAZE_KRUgxX8VJX-2">
          <mxGeometry width="50" height="50" relative="1" as="geometry">
            <mxPoint x="510" y="-40" as="sourcePoint" />
            <mxPoint x="560" y="-90" as="targetPoint" />
          </mxGeometry>
        </mxCell>
        <mxCell id="_WT5GWAZE_KRUgxX8VJX-34" value="" style="endArrow=classic;html=1;rounded=0;entryX=0.5;entryY=0;entryDx=0;entryDy=0;exitX=0.5;exitY=1;exitDx=0;exitDy=0;" edge="1" parent="WIyWlLk6GJQsqaUBKTNV-1" source="qIYnpFYA4jkUjQLkoqqI-32" target="qIYnpFYA4jkUjQLkoqqI-28">
          <mxGeometry width="50" height="50" relative="1" as="geometry">
            <mxPoint x="510" y="260" as="sourcePoint" />
            <mxPoint x="560" y="210" as="targetPoint" />
          </mxGeometry>
        </mxCell>
        <mxCell id="_WT5GWAZE_KRUgxX8VJX-35" value="" style="endArrow=classic;html=1;rounded=0;entryX=0.5;entryY=0;entryDx=0;entryDy=0;exitX=0.5;exitY=1;exitDx=0;exitDy=0;" edge="1" parent="WIyWlLk6GJQsqaUBKTNV-1" source="qIYnpFYA4jkUjQLkoqqI-0" target="qIYnpFYA4jkUjQLkoqqI-28">
          <mxGeometry width="50" height="50" relative="1" as="geometry">
            <mxPoint x="510" y="260" as="sourcePoint" />
            <mxPoint x="560" y="210" as="targetPoint" />
          </mxGeometry>
        </mxCell>
        <mxCell id="_WT5GWAZE_KRUgxX8VJX-36" value="simulated new pop offspring" style="rounded=1;whiteSpace=wrap;html=1;" vertex="1" parent="WIyWlLk6GJQsqaUBKTNV-1">
          <mxGeometry x="1013.5" y="370" width="120" height="60" as="geometry" />
        </mxCell>
        <mxCell id="_WT5GWAZE_KRUgxX8VJX-37" value="" style="endArrow=classic;html=1;rounded=0;exitX=0.5;exitY=1;exitDx=0;exitDy=0;entryX=0.5;entryY=0;entryDx=0;entryDy=0;" edge="1" parent="WIyWlLk6GJQsqaUBKTNV-1" source="qIYnpFYA4jkUjQLkoqqI-11" target="qIYnpFYA4jkUjQLkoqqI-19">
          <mxGeometry width="50" height="50" relative="1" as="geometry">
            <mxPoint x="420" y="380" as="sourcePoint" />
            <mxPoint x="450" y="500" as="targetPoint" />
          </mxGeometry>
        </mxCell>
        <mxCell id="_WT5GWAZE_KRUgxX8VJX-38" value="" style="endArrow=classic;html=1;rounded=0;entryX=0.5;entryY=0;entryDx=0;entryDy=0;" edge="1" parent="WIyWlLk6GJQsqaUBKTNV-1" target="qIYnpFYA4jkUjQLkoqqI-19">
          <mxGeometry width="50" height="50" relative="1" as="geometry">
            <mxPoint x="450" y="100" as="sourcePoint" />
            <mxPoint x="470" y="330" as="targetPoint" />
          </mxGeometry>
        </mxCell>
        <mxCell id="_WT5GWAZE_KRUgxX8VJX-39" value="" style="endArrow=classic;html=1;rounded=0;exitX=0.5;exitY=1;exitDx=0;exitDy=0;entryX=0.5;entryY=0;entryDx=0;entryDy=0;" edge="1" parent="WIyWlLk6GJQsqaUBKTNV-1" source="_WT5GWAZE_KRUgxX8VJX-36" target="qIYnpFYA4jkUjQLkoqqI-46">
          <mxGeometry width="50" height="50" relative="1" as="geometry">
            <mxPoint x="866.5" y="540" as="sourcePoint" />
            <mxPoint x="491.5" y="830" as="targetPoint" />
          </mxGeometry>
        </mxCell>
        <mxCell id="_WT5GWAZE_KRUgxX8VJX-40" value="" style="endArrow=classic;html=1;rounded=0;entryX=0.5;entryY=0;entryDx=0;entryDy=0;exitX=0.5;exitY=1;exitDx=0;exitDy=0;" edge="1" parent="WIyWlLk6GJQsqaUBKTNV-1" source="qIYnpFYA4jkUjQLkoqqI-15" target="qIYnpFYA4jkUjQLkoqqI-11">
          <mxGeometry width="50" height="50" relative="1" as="geometry">
            <mxPoint x="868.5" y="360" as="sourcePoint" />
            <mxPoint x="918.5" y="310" as="targetPoint" />
          </mxGeometry>
        </mxCell>
        <mxCell id="_WT5GWAZE_KRUgxX8VJX-41" value="" style="endArrow=classic;html=1;rounded=0;entryX=0.5;entryY=0;entryDx=0;entryDy=0;exitX=0.5;exitY=1;exitDx=0;exitDy=0;" edge="1" parent="WIyWlLk6GJQsqaUBKTNV-1" source="_WT5GWAZE_KRUgxX8VJX-10" target="_WT5GWAZE_KRUgxX8VJX-36">
          <mxGeometry width="50" height="50" relative="1" as="geometry">
            <mxPoint x="868.5" y="360" as="sourcePoint" />
            <mxPoint x="918.5" y="310" as="targetPoint" />
          </mxGeometry>
        </mxCell>
        <mxCell id="_WT5GWAZE_KRUgxX8VJX-42" value="new pop X: parental marker effects + marker correlations + genetic map features&lt;br&gt;new pop Y: offspring trait summary statistics" style="rounded=1;whiteSpace=wrap;html=1;" vertex="1" parent="WIyWlLk6GJQsqaUBKTNV-1">
          <mxGeometry x="600" y="690" width="220" height="100" as="geometry" />
        </mxCell>
        <mxCell id="_WT5GWAZE_KRUgxX8VJX-44" value="real pop X: parental marker effects + marker correlations + genetic map features&lt;br style=&quot;border-color: var(--border-color);&quot;&gt;real pop Y: offspring trait summary statistics" style="rounded=1;whiteSpace=wrap;html=1;" vertex="1" parent="WIyWlLk6GJQsqaUBKTNV-1">
          <mxGeometry x="350" y="690" width="220" height="100" as="geometry" />
        </mxCell>
        <mxCell id="_WT5GWAZE_KRUgxX8VJX-45" value="" style="endArrow=classic;html=1;rounded=0;entryX=0.5;entryY=0;entryDx=0;entryDy=0;exitX=0.5;exitY=1;exitDx=0;exitDy=0;" edge="1" parent="WIyWlLk6GJQsqaUBKTNV-1" source="qIYnpFYA4jkUjQLkoqqI-28" target="qIYnpFYA4jkUjQLkoqqI-30">
          <mxGeometry width="50" height="50" relative="1" as="geometry">
            <mxPoint x="700" y="450" as="sourcePoint" />
            <mxPoint x="750" y="400" as="targetPoint" />
          </mxGeometry>
        </mxCell>
        <mxCell id="_WT5GWAZE_KRUgxX8VJX-46" value="" style="endArrow=classic;html=1;rounded=0;exitX=0.5;exitY=1;exitDx=0;exitDy=0;entryX=0.5;entryY=0;entryDx=0;entryDy=0;" edge="1" parent="WIyWlLk6GJQsqaUBKTNV-1" source="qIYnpFYA4jkUjQLkoqqI-30" target="qIYnpFYA4jkUjQLkoqqI-46">
          <mxGeometry width="50" height="50" relative="1" as="geometry">
            <mxPoint x="701.5" y="720" as="sourcePoint" />
            <mxPoint x="751.5" y="670" as="targetPoint" />
          </mxGeometry>
        </mxCell>
        <mxCell id="_WT5GWAZE_KRUgxX8VJX-47" value="" style="endArrow=classic;html=1;rounded=0;exitX=0.5;exitY=1;exitDx=0;exitDy=0;entryX=0.5;entryY=0;entryDx=0;entryDy=0;" edge="1" parent="WIyWlLk6GJQsqaUBKTNV-1" source="qIYnpFYA4jkUjQLkoqqI-0" target="qIYnpFYA4jkUjQLkoqqI-46">
          <mxGeometry width="50" height="50" relative="1" as="geometry">
            <mxPoint x="490" y="180" as="sourcePoint" />
            <mxPoint x="590" y="690" as="targetPoint" />
          </mxGeometry>
        </mxCell>
        <mxCell id="_WT5GWAZE_KRUgxX8VJX-51" value="" style="endArrow=classic;html=1;rounded=0;entryX=0.5;entryY=0;entryDx=0;entryDy=0;exitX=0.5;exitY=1;exitDx=0;exitDy=0;" edge="1" parent="WIyWlLk6GJQsqaUBKTNV-1" source="qIYnpFYA4jkUjQLkoqqI-10" target="qIYnpFYA4jkUjQLkoqqI-46">
          <mxGeometry width="50" height="50" relative="1" as="geometry">
            <mxPoint x="540" y="370" as="sourcePoint" />
            <mxPoint x="590" y="320" as="targetPoint" />
          </mxGeometry>
        </mxCell>
        <mxCell id="_WT5GWAZE_KRUgxX8VJX-52" value="" style="endArrow=classic;html=1;rounded=0;entryX=0.5;entryY=0;entryDx=0;entryDy=0;exitX=0.5;exitY=1;exitDx=0;exitDy=0;" edge="1" parent="WIyWlLk6GJQsqaUBKTNV-1" source="qIYnpFYA4jkUjQLkoqqI-33" target="qIYnpFYA4jkUjQLkoqqI-46">
          <mxGeometry width="50" height="50" relative="1" as="geometry">
            <mxPoint x="540" y="600" as="sourcePoint" />
            <mxPoint x="590" y="550" as="targetPoint" />
          </mxGeometry>
        </mxCell>
        <mxCell id="_WT5GWAZE_KRUgxX8VJX-53" value="" style="endArrow=classic;html=1;rounded=0;entryX=0.5;entryY=0;entryDx=0;entryDy=0;exitX=0.5;exitY=1;exitDx=0;exitDy=0;" edge="1" parent="WIyWlLk6GJQsqaUBKTNV-1" source="qIYnpFYA4jkUjQLkoqqI-46" target="_WT5GWAZE_KRUgxX8VJX-42">
          <mxGeometry width="50" height="50" relative="1" as="geometry">
            <mxPoint x="590" y="670" as="sourcePoint" />
            <mxPoint x="640" y="620" as="targetPoint" />
          </mxGeometry>
        </mxCell>
        <mxCell id="_WT5GWAZE_KRUgxX8VJX-54" value="" style="endArrow=classic;html=1;rounded=0;entryX=0.5;entryY=0;entryDx=0;entryDy=0;exitX=0.5;exitY=1;exitDx=0;exitDy=0;" edge="1" parent="WIyWlLk6GJQsqaUBKTNV-1" source="qIYnpFYA4jkUjQLkoqqI-46" target="_WT5GWAZE_KRUgxX8VJX-44">
          <mxGeometry width="50" height="50" relative="1" as="geometry">
            <mxPoint x="590" y="670" as="sourcePoint" />
            <mxPoint x="640" y="620" as="targetPoint" />
          </mxGeometry>
        </mxCell>
        <mxCell id="_WT5GWAZE_KRUgxX8VJX-56" value="" style="endArrow=classic;html=1;rounded=0;entryX=0.5;entryY=0;entryDx=0;entryDy=0;exitX=0.5;exitY=1;exitDx=0;exitDy=0;" edge="1" parent="WIyWlLk6GJQsqaUBKTNV-1" source="_WT5GWAZE_KRUgxX8VJX-44" target="qIYnpFYA4jkUjQLkoqqI-36">
          <mxGeometry width="50" height="50" relative="1" as="geometry">
            <mxPoint x="590" y="900" as="sourcePoint" />
            <mxPoint x="640" y="850" as="targetPoint" />
          </mxGeometry>
        </mxCell>
        <mxCell id="_WT5GWAZE_KRUgxX8VJX-57" value="" style="endArrow=classic;html=1;rounded=0;entryX=0.5;entryY=0;entryDx=0;entryDy=0;exitX=0.532;exitY=0.998;exitDx=0;exitDy=0;exitPerimeter=0;" edge="1" parent="WIyWlLk6GJQsqaUBKTNV-1" source="_WT5GWAZE_KRUgxX8VJX-42" target="qIYnpFYA4jkUjQLkoqqI-36">
          <mxGeometry width="50" height="50" relative="1" as="geometry">
            <mxPoint x="590" y="900" as="sourcePoint" />
            <mxPoint x="640" y="850" as="targetPoint" />
          </mxGeometry>
        </mxCell>
      </root>
    </mxGraphModel>
  </diagram>
</mxfile>
